<svg t="1693987563637" class="icon" viewBox="0 0 1024 1024" version="1.1" xmlns="http://www.w3.org/2000/svg" p-id="4062" width="200" height="200">
    <path d="M886.186667 328.533333c5.546667 0 9.813333-6.826667 9.813333-14.08V240.213333c0-7.68-4.266667-14.08-9.813333-14.08H137.813333c-5.546667 0-9.813333 6.826667-9.813333 14.08v74.24c0 7.68 4.266667 14.08 9.813333 14.08zM128 549.12c0 7.68 4.266667 14.08 9.813333 14.08h748.373334c5.546667 0 9.813333-6.826667 9.813333-14.08v-74.24c0-7.68-4.266667-14.08-9.813333-14.08H137.813333c-5.546667 0-9.813333 6.826667-9.813333 14.08z m0 234.666667c0 7.68 4.266667 14.08 9.813333 14.08h748.373334c5.546667 0 9.813333-6.826667 9.813333-14.08v-74.24c0-7.68-4.266667-14.08-9.813333-14.08H137.813333c-5.546667 0-9.813333 6.826667-9.813333 14.08z" 
    fill="#ffffff" 
    p-id="4063">
    </path>
</svg>